<svg xmlns="http://www.w3.org/2000/svg" viewBox="0 0 64 64" width="64" height="64">
  <!-- Calculator body -->
  <rect x="8" y="4" width="48" height="56" rx="6" ry="6" fill="#6b7280"/>
  <rect x="10" y="6" width="44" height="52" rx="5" ry="5" fill="#9ca3af"/>
  <!-- Screen -->
  <rect x="14" y="10" width="36" height="12" rx="2" ry="2" fill="#166534"/>
  <rect x="15" y="11" width="34" height="10" rx="1.5" ry="1.5" fill="#22c55e" opacity="0.7"/>
  <!-- Button rows -->
  <!-- Row 1 -->
  <rect x="14" y="26" width="7" height="7" rx="1.5" fill="#e5e7eb"/>
  <rect x="23.5" y="26" width="7" height="7" rx="1.5" fill="#e5e7eb"/>
  <rect x="33" y="26" width="7" height="7" rx="1.5" fill="#e5e7eb"/>
  <rect x="42.5" y="26" width="7" height="7" rx="1.5" fill="#f97316"/>
  <!-- Row 2 -->
  <rect x="14" y="35" width="7" height="7" rx="1.5" fill="#e5e7eb"/>
  <rect x="23.5" y="35" width="7" height="7" rx="1.5" fill="#e5e7eb"/>
  <rect x="33" y="35" width="7" height="7" rx="1.5" fill="#e5e7eb"/>
  <rect x="42.5" y="35" width="7" height="7" rx="1.5" fill="#f97316"/>
  <!-- Row 3 -->
  <rect x="14" y="44" width="7" height="7" rx="1.5" fill="#e5e7eb"/>
  <rect x="23.5" y="44" width="7" height="7" rx="1.5" fill="#e5e7eb"/>
  <rect x="33" y="44" width="7" height="7" rx="1.5" fill="#e5e7eb"/>
  <rect x="42.5" y="44" width="7" height="7" rx="1.5" fill="#ef4444"/>
</svg>
